<svg width="45" height="47" viewBox="0 0 45 47" fill="none" xmlns="http://www.w3.org/2000/svg">
<path d="M0 1.57956C0 0.707195 0.707194 0 1.57956 0C2.38725 0 3.06482 0.609313 3.15026 1.41247L5.48875 23.3942C5.49623 23.4645 5.49623 23.5355 5.48875 23.6058L3 47H2C0.895431 47 0 46.1046 0 45V1.57956Z" fill="#EA5D21"/>
<path d="M15.8221 1.39333C15.9238 0.596812 16.6017 0 17.4046 0V0C18.2857 0 19 0.714266 19 1.59536V45.4046C19 46.2857 18.2857 47 17.4046 47V47C16.6017 47 15.9238 46.4032 15.8221 45.6067L13.0323 23.7533C13.0109 23.5851 13.0109 23.4149 13.0323 23.2467L15.8221 1.39333Z" fill="#EA5D21"/>
<path d="M1.80291 47C0.807192 47 -3.52834e-08 46.1928 -7.88077e-08 45.1971V45.1971C-1.10516e-07 44.4717 0.434734 43.817 1.10328 43.5355L8.72389 40.3268C9.2202 40.1178 9.7798 40.1178 10.2761 40.3268L17.8967 43.5355C18.5653 43.817 19 44.4717 19 45.1971V45.1971C19 46.1928 18.1928 47 17.1971 47L1.80291 47Z" fill="#EA5D21"/>
<rect x="31" width="5" height="47" fill="#EA5D21"/>
<path d="M43 -8.74228e-08C44.1046 -3.91405e-08 45 0.895431 45 2L45 2.26015C45 2.73757 44.8292 3.19925 44.5185 3.56174L43.5857 4.64997C42.765 5.60748 41.2737 5.57567 40.4946 4.58403L39.8506 3.76436C39.4714 3.28178 38.8917 3 38.2779 3L33.5 3L28.7221 3C28.1083 3 27.5286 3.28178 27.1494 3.76436L26.5054 4.58403C25.7263 5.57567 24.235 5.60748 23.4143 4.64997L22.4815 3.56173C22.1708 3.19925 22 2.73757 22 2.26015L22 2C22 0.89543 22.8954 -9.66221e-07 24 -9.17939e-07L43 -8.74228e-08Z" fill="#EA5D21"/>
<path d="M44.2804 43.4003C44.7364 43.7803 45 44.3432 45 44.9367V45C45 46.1046 44.1046 47 43 47L24 47C22.8954 47 22 46.1046 22 45L22 44.9367C22 44.3432 22.2636 43.7803 22.7196 43.4003L23.6625 42.6146C24.4293 41.9756 25.5497 41.9997 26.2882 42.6711L27.1779 43.4799C27.546 43.8146 28.0257 44 28.5232 44L38.4768 44C38.9743 44 39.454 43.8146 39.8221 43.4799L40.7118 42.6711C41.4503 41.9997 42.5707 41.9756 43.3375 42.6146L44.2804 43.4003Z" fill="#EA5D21"/>
</svg>
